<svg width="69" height="72" viewBox="0 0 69 72" fill="none" xmlns="http://www.w3.org/2000/svg">
<g filter="url(#filter0_d_26_27)">
<circle cx="34" cy="34" r="34" fill="url(#paint0_linear_26_27)"/>
</g>
<g clip-path="url(#clip0_26_27)">
<path d="M37.1413 27.163H27.9022C26.8831 27.163 26.0543 26.3342 26.0543 25.3152V23.4673C26.0543 22.4483 26.8831 21.6195 27.9022 21.6195H37.1413C38.1604 21.6195 38.9891 22.4483 38.9891 23.4673V25.3152C38.9891 26.3342 38.1604 27.163 37.1413 27.163ZM27.9022 23.4673V25.3152H37.1413V23.4701L27.9022 23.4673Z" fill="white"/>
<path d="M42.6848 37.326C42.4397 37.326 42.2047 37.2286 42.0315 37.0554C41.8582 36.8821 41.7609 36.6471 41.7609 36.4021V25.3151H38.0652C37.8202 25.3151 37.5852 25.2178 37.4119 25.0445C37.2386 24.8712 37.1413 24.6362 37.1413 24.3912C37.1413 24.1462 37.2386 23.9112 37.4119 23.7379C37.5852 23.5646 37.8202 23.4673 38.0652 23.4673H41.7609C42.7799 23.4673 43.6087 24.296 43.6087 25.3151V36.4021C43.6087 36.6471 43.5114 36.8821 43.3381 37.0554C43.1648 37.2286 42.9298 37.326 42.6848 37.326ZM30.6739 49.3369H23.2826C22.2635 49.3369 21.4348 48.5081 21.4348 47.489V25.3151C21.4348 24.296 22.2635 23.4673 23.2826 23.4673H26.9783C27.2233 23.4673 27.4583 23.5646 27.6316 23.7379C27.8048 23.9112 27.9022 24.1462 27.9022 24.3912C27.9022 24.6362 27.8048 24.8712 27.6316 25.0445C27.4583 25.2178 27.2233 25.3151 26.9783 25.3151H23.2826V47.489H30.6739C30.919 47.489 31.154 47.5864 31.3272 47.7596C31.5005 47.9329 31.5978 48.1679 31.5978 48.4129C31.5978 48.658 31.5005 48.893 31.3272 49.0662C31.154 49.2395 30.919 49.3369 30.6739 49.3369Z" fill="white"/>
<path d="M41.7609 49.337H30.6739C29.6548 49.337 28.8261 48.5082 28.8261 47.4891V30.8587C28.8261 29.8396 29.6548 29.0109 30.6739 29.0109H37.1413C37.3863 29.0109 37.6213 29.1082 37.7946 29.2815C37.9679 29.4547 38.0652 29.6897 38.0652 29.9348C38.0652 30.1798 37.9679 30.4148 37.7946 30.5881C37.6213 30.7613 37.3863 30.8587 37.1413 30.8587H30.6739V47.4891H41.7609V35.4783C41.7609 35.2332 41.8582 34.9982 42.0315 34.825C42.2047 34.6517 42.4397 34.5543 42.6848 34.5543C42.9298 34.5543 43.1648 34.6517 43.3381 34.825C43.5114 34.9982 43.6087 35.2332 43.6087 35.4783V47.4891C43.6087 48.5082 42.7799 49.337 41.7609 49.337Z" fill="white"/>
<path d="M42.6847 36.402C42.5634 36.4022 42.4432 36.3783 42.3311 36.3318C42.219 36.2854 42.1172 36.2172 42.0315 36.1313L36.4881 30.5878C36.4023 30.5021 36.3342 30.4002 36.2878 30.2882C36.2414 30.1761 36.2175 30.0559 36.2175 29.9346C36.2175 29.6896 36.3148 29.4547 36.4881 29.2814C36.6613 29.1082 36.8963 29.0109 37.1413 29.0109C37.2626 29.0109 37.3827 29.0348 37.4948 29.0812C37.6068 29.1276 37.7087 29.1957 37.7945 29.2814L43.3379 34.8249C43.4676 34.9539 43.5559 35.1186 43.5918 35.2979C43.6277 35.4773 43.6095 35.6632 43.5395 35.8322C43.4695 36.0012 43.3509 36.1456 43.1987 36.247C43.0465 36.3485 42.8676 36.4024 42.6847 36.402Z" fill="white"/>
<path d="M37.1404 36.4021C36.8954 36.4021 36.6604 36.3047 36.4871 36.1315C36.3138 35.9582 36.2165 35.7232 36.2165 35.4782L36.2174 30.8586C36.2174 30.6136 36.3148 30.3786 36.488 30.2053C36.6613 30.032 36.8963 29.9347 37.1413 29.9347C37.3864 29.9347 37.6214 30.032 37.7946 30.2053C37.9679 30.3786 38.0652 30.6136 38.0652 30.8586L38.0643 35.4782C38.0643 35.7232 37.967 35.9582 37.7937 36.1315C37.6204 36.3047 37.3854 36.4021 37.1404 36.4021Z" fill="white"/>
<path d="M42.6848 36.4021H37.1404C36.8954 36.4021 36.6604 36.3048 36.4871 36.1315C36.3138 35.9583 36.2165 35.7233 36.2165 35.4782C36.2165 35.2332 36.3138 34.9982 36.4871 34.8249C36.6604 34.6517 36.8954 34.5543 37.1404 34.5543H42.6848C42.9298 34.5543 43.1648 34.6517 43.3381 34.8249C43.5114 34.9982 43.6087 35.2332 43.6087 35.4782C43.6087 35.7233 43.5114 35.9583 43.3381 36.1315C43.1648 36.3048 42.9298 36.4021 42.6848 36.4021Z" fill="white"/>
</g>
<defs>
<filter id="filter0_d_26_27" x="0" y="0" width="69" height="72" filterUnits="userSpaceOnUse" color-interpolation-filters="sRGB">
<feFlood flood-opacity="0" result="BackgroundImageFix"/>
<feColorMatrix in="SourceAlpha" type="matrix" values="0 0 0 0 0 0 0 0 0 0 0 0 0 0 0 0 0 0 127 0" result="hardAlpha"/>
<feOffset dx="1" dy="4"/>
<feComposite in2="hardAlpha" operator="out"/>
<feColorMatrix type="matrix" values="0 0 0 0 0.00784314 0 0 0 0 0.603922 0 0 0 0 0.694118 0 0 0 0.2 0"/>
<feBlend mode="normal" in2="BackgroundImageFix" result="effect1_dropShadow_26_27"/>
<feBlend mode="normal" in="SourceGraphic" in2="effect1_dropShadow_26_27" result="shape"/>
</filter>
<linearGradient id="paint0_linear_26_27" x1="34" y1="0" x2="34" y2="68" gradientUnits="userSpaceOnUse">
<stop stop-color="#09A7BF"/>
<stop offset="1" stop-color="#029AB1"/>
</linearGradient>
<clipPath id="clip0_26_27">
<rect width="29.5652" height="29.5652" fill="white" transform="translate(17.7391 20.6956)"/>
</clipPath>
</defs>
</svg>
