<svg width="69" height="72" viewBox="0 0 69 72" fill="none" xmlns="http://www.w3.org/2000/svg">
<g filter="url(#filter0_d_17_559)">
<circle cx="34" cy="34" r="34" fill="url(#paint0_linear_17_559)"/>
</g>
<path d="M34 38.3206C33.4636 38.3205 32.93 38.2441 32.4152 38.0936C31.7039 37.8828 31.0377 37.5423 30.4503 37.089C28.6293 35.6959 27.542 33.3521 27.542 30.8167C27.5409 30.0304 27.6473 29.2476 27.8582 28.4901C27.8809 28.4087 27.9195 28.3326 27.9716 28.2661C28.0238 28.1996 28.0885 28.1441 28.1622 28.1026C28.2358 28.0611 28.3169 28.0346 28.4008 28.0244C28.4847 28.0143 28.5698 28.0208 28.6512 28.0435C28.7326 28.0663 28.8087 28.1048 28.8752 28.157C28.9417 28.2091 28.9972 28.2739 29.0387 28.3475C29.0802 28.4211 29.1068 28.5022 29.1169 28.5861C29.127 28.67 29.1205 28.7551 29.0978 28.8365C28.9186 29.4811 28.8283 30.1472 28.8294 30.8163C28.8294 32.9531 29.7282 34.9148 31.2331 36.0672C31.6947 36.4243 32.2183 36.693 32.7776 36.8596C33.5773 37.0924 34.4267 37.0924 35.2263 36.8596C35.7855 36.6932 36.3091 36.4247 36.7705 36.0676C38.2753 34.9164 39.1742 32.9535 39.1742 30.8167C39.1753 30.1476 39.085 29.4815 38.9058 28.8369C38.8629 28.6737 38.8859 28.5002 38.9698 28.3539C39.0536 28.2075 39.1917 28.0999 39.3542 28.0544C39.5166 28.0089 39.6905 28.0291 39.8382 28.1106C39.9859 28.1921 40.0957 28.3284 40.1438 28.4901C40.3547 29.2476 40.4611 30.0304 40.46 30.8167C40.46 33.3513 39.3727 35.6959 37.5516 37.089C36.9644 37.5422 36.2983 37.8828 35.5872 38.0936C35.0716 38.2442 34.5371 38.3207 34 38.3206Z" fill="white"/>
<path d="M40.2579 29.3063H27.742C26.6433 29.3049 25.5901 28.8678 24.8132 28.0909C24.0363 27.314 23.5994 26.2606 23.5981 25.162C23.5981 24.9914 23.6658 24.8279 23.7864 24.7073C23.907 24.5868 24.0705 24.519 24.241 24.519H43.7593C43.9298 24.519 44.0933 24.5868 44.2139 24.7073C44.3345 24.8279 44.4022 24.9914 44.4022 25.162C44.4009 26.2607 43.9639 27.3141 43.187 28.091C42.41 28.868 41.3566 29.305 40.2579 29.3063ZM24.959 25.8049C25.1051 26.4343 25.4597 26.9958 25.9654 27.3981C26.471 27.8003 27.0979 28.0197 27.744 28.0205H40.2579C40.904 28.0196 41.5309 27.8003 42.0366 27.398C42.5423 26.9958 42.8971 26.4343 43.0433 25.8049H24.959Z" fill="white"/>
<path d="M27.3338 25.8054C27.2758 25.8053 27.218 25.7974 27.1622 25.7817C26.9979 25.7363 26.8583 25.6274 26.7742 25.4791C26.6901 25.3308 26.6684 25.1552 26.7138 24.9909L28.7124 17.7582C28.7495 17.6222 28.8302 17.5022 28.9422 17.4166C29.0541 17.331 29.1911 17.2846 29.332 17.2844H38.6683C38.8089 17.2844 38.9457 17.3306 39.0576 17.4158C39.1695 17.501 39.2504 17.6206 39.2879 17.7562L41.2865 24.9909C41.3319 25.1553 41.3101 25.331 41.226 25.4793C41.1419 25.6276 41.0023 25.7365 40.8379 25.7819C40.6735 25.8273 40.4978 25.8055 40.3495 25.7214C40.2011 25.6372 40.0923 25.4976 40.0469 25.3332L38.1788 18.5702H29.821L27.9534 25.3332C27.916 25.4689 27.8351 25.5886 27.7232 25.6738C27.6113 25.7591 27.4745 25.8053 27.3338 25.8054ZM46.1348 50.7157H21.865C21.6945 50.7157 21.531 50.648 21.4104 50.5274C21.2899 50.4068 21.2221 50.2433 21.2221 50.0728V49.5319C21.2179 46.3976 22.3674 43.3713 24.4515 41.0302C26.5355 38.6891 29.4083 37.1969 32.522 36.8381C32.6063 36.8277 32.6918 36.8341 32.7735 36.8569C32.8553 36.8797 32.9317 36.9185 32.9984 36.971C33.0651 37.0235 33.1208 37.0887 33.1622 37.1628C33.2035 37.2369 33.2298 37.3185 33.2395 37.4028C33.2492 37.4872 33.2421 37.5726 33.2186 37.6542C33.1951 37.7357 33.1557 37.8118 33.1026 37.8781C33.0495 37.9443 32.9839 37.9994 32.9094 38.0402C32.8349 38.0809 32.7531 38.1065 32.6687 38.1155C32.1081 38.1799 31.553 38.2859 31.008 38.4325C26.0355 39.7694 22.5529 44.2826 22.5079 49.4299H45.4919C45.4707 46.629 44.426 43.9325 42.5545 41.8485C40.683 39.7645 38.1141 38.4368 35.3316 38.1155C35.2472 38.1065 35.1654 38.0809 35.0909 38.0402C35.0164 37.9994 34.9508 37.9443 34.8977 37.8781C34.8446 37.8118 34.8052 37.7357 34.7817 37.6542C34.7582 37.5726 34.7511 37.4872 34.7608 37.4028C34.7705 37.3185 34.7967 37.2369 34.8381 37.1628C34.8795 37.0887 34.9351 37.0235 35.0018 36.971C35.0685 36.9185 35.145 36.8797 35.2267 36.8569C35.3085 36.8341 35.394 36.8277 35.4782 36.8381C38.5902 37.2012 41.4603 38.6947 43.5435 41.0349C45.6266 43.3751 46.7776 46.3989 46.7778 49.5319V50.0728C46.7778 50.2433 46.71 50.4068 46.5895 50.5274C46.4689 50.648 46.3054 50.7157 46.1348 50.7157Z" fill="white"/>
<path d="M26.3739 45.0418C26.2034 45.0418 26.0398 44.9741 25.9193 44.8535C25.7987 44.7329 25.731 44.5694 25.731 44.3989V40.0918C25.731 39.9213 25.7987 39.7578 25.9193 39.6372C26.0398 39.5166 26.2034 39.4489 26.3739 39.4489C26.5444 39.4489 26.7079 39.5166 26.8285 39.6372C26.9491 39.7578 27.0168 39.9213 27.0168 40.0918V44.3989C27.0168 44.5694 26.9491 44.7329 26.8285 44.8535C26.7079 44.9741 26.5444 45.0418 26.3739 45.0418ZM28.9901 45.0418C28.8196 45.0418 28.6561 44.9741 28.5355 44.8535C28.4149 44.7329 28.3472 44.5694 28.3472 44.3989V38.4757C28.3472 38.3052 28.4149 38.1417 28.5355 38.0211C28.6561 37.9005 28.8196 37.8328 28.9901 37.8328C29.1606 37.8328 29.3242 37.9005 29.4447 38.0211C29.5653 38.1417 29.633 38.3052 29.633 38.4757V44.3989C29.633 44.5694 29.5653 44.7329 29.4447 44.8535C29.3242 44.9741 29.1606 45.0418 28.9901 45.0418ZM38.9701 45.0418C38.7996 45.0418 38.636 44.9741 38.5155 44.8535C38.3949 44.7329 38.3272 44.5694 38.3272 44.3989V38.4576C38.3272 38.2871 38.3949 38.1236 38.5155 38.003C38.636 37.8824 38.7996 37.8147 38.9701 37.8147C39.1406 37.8147 39.3041 37.8824 39.4247 38.003C39.5453 38.1236 39.613 38.2871 39.613 38.4576V44.3989C39.613 44.5694 39.5453 44.7329 39.4247 44.8535C39.3041 44.9741 39.1406 45.0418 38.9701 45.0418ZM41.5863 45.0418C41.4158 45.0418 41.2523 44.9741 41.1317 44.8535C41.0111 44.7329 40.9434 44.5694 40.9434 44.3989V40.0593C40.9434 39.8887 41.0111 39.7252 41.1317 39.6046C41.2523 39.4841 41.4158 39.4163 41.5863 39.4163C41.7568 39.4163 41.9204 39.4841 42.0409 39.6046C42.1615 39.7252 42.2292 39.8887 42.2292 40.0593V44.3989C42.2292 44.5694 42.1615 44.7329 42.0409 44.8535C41.9204 44.9741 41.7568 45.0418 41.5863 45.0418Z" fill="white"/>
<path d="M41.9483 50.7155H25.7301C25.5596 50.7155 25.3961 50.6478 25.2755 50.5272C25.155 50.4066 25.0872 50.2431 25.0872 50.0726V44.3985C25.0872 44.228 25.155 44.0645 25.2755 43.9439C25.3961 43.8234 25.5596 43.7556 25.7301 43.7556H41.9483C42.1188 43.7556 42.2824 43.8234 42.4029 43.9439C42.5235 44.0645 42.5912 44.228 42.5912 44.3985V50.0726C42.5912 50.2431 42.5235 50.4066 42.4029 50.5272C42.2824 50.6478 42.1188 50.7155 41.9483 50.7155ZM26.373 49.4297H41.3054V45.0414H26.373V49.4297Z" fill="white"/>
<defs>
<filter id="filter0_d_17_559" x="0" y="0" width="69" height="72" filterUnits="userSpaceOnUse" color-interpolation-filters="sRGB">
<feFlood flood-opacity="0" result="BackgroundImageFix"/>
<feColorMatrix in="SourceAlpha" type="matrix" values="0 0 0 0 0 0 0 0 0 0 0 0 0 0 0 0 0 0 127 0" result="hardAlpha"/>
<feOffset dx="1" dy="4"/>
<feComposite in2="hardAlpha" operator="out"/>
<feColorMatrix type="matrix" values="0 0 0 0 0.0069584 0 0 0 0 0.603983 0 0 0 0 0.695833 0 0 0 0.2 0"/>
<feBlend mode="normal" in2="BackgroundImageFix" result="effect1_dropShadow_17_559"/>
<feBlend mode="normal" in="SourceGraphic" in2="effect1_dropShadow_17_559" result="shape"/>
</filter>
<linearGradient id="paint0_linear_17_559" x1="34" y1="0" x2="34" y2="68" gradientUnits="userSpaceOnUse">
<stop stop-color="#09A7BF"/>
<stop offset="1" stop-color="#029AB1"/>
</linearGradient>
</defs>
</svg>
