<svg width="69" height="72" viewBox="0 0 69 72" fill="none" xmlns="http://www.w3.org/2000/svg">
<g filter="url(#filter0_d_27_41)">
<circle cx="34" cy="34" r="34" fill="url(#paint0_linear_27_41)"/>
</g>
<path d="M26.7579 21.8123C26.7399 21.8143 26.7221 21.8173 26.7044 21.8214C26.1214 21.8454 25.57 22.0934 25.1652 22.5137C24.7604 22.9341 24.5333 23.4944 24.5312 24.0779V39.9373H20.9081V40.3904H20.9062V42.2029C20.9082 42.7878 21.1362 43.3492 21.5426 43.7698C21.949 44.1904 22.5023 44.4375 23.0867 44.4595C23.1147 44.4652 23.1433 44.4682 23.1719 44.4686H35.4044V47.7021L37.7272 46.3427L39.9375 47.7311V44.4686H42.2031C42.7851 44.4663 43.3439 44.2403 43.7637 43.8372C44.1835 43.4341 44.432 42.8849 44.4579 42.3035C44.4652 42.2705 44.4689 42.2368 44.4688 42.2029V26.3436H48.0938V24.0779C48.0915 23.496 47.8654 22.9372 47.4624 22.5174C47.0593 22.0976 46.5101 21.849 45.9287 21.8232C45.8957 21.8158 45.862 21.8122 45.8281 21.8123H26.8041C26.8017 21.8123 26.7993 21.8123 26.7969 21.8123C26.7839 21.8117 26.7709 21.8117 26.7579 21.8123ZM26.7969 22.7186C26.7993 22.7186 26.8017 22.7186 26.8041 22.7186C26.9825 22.7178 27.1593 22.7525 27.3241 22.8207C27.489 22.8888 27.6386 22.9891 27.7644 23.1155C27.8902 23.242 27.9896 23.3922 28.0569 23.5574C28.1242 23.7226 28.1579 23.8996 28.1562 24.0779V25.8904H28.1617V26.3436H43.5625V34.9212C43.5621 34.9318 43.5621 34.9424 43.5625 34.9529V42.2029C43.5625 42.9642 42.9644 43.5623 42.2031 43.5623H39.9375V41.4526C40.0426 41.4526 40.1731 41.4526 40.3163 41.4616C40.4704 41.4616 40.6317 41.4707 40.7785 41.4616C40.851 41.4616 40.9208 41.4498 40.9996 41.4344C41.0785 41.419 41.1745 41.4227 41.3195 41.2758C41.4654 41.1281 41.4627 41.0312 41.4772 40.9514C41.4926 40.8726 41.4953 40.8037 41.499 40.7303C41.5034 40.5774 41.5022 40.4245 41.4953 40.2717C41.4899 40.1177 41.4827 39.9654 41.4827 39.8576V39.8394C41.489 39.8394 41.4899 39.8304 41.4972 39.8304C41.5896 39.776 41.7237 39.7053 41.8597 39.631C41.9956 39.5567 42.1343 39.4806 42.2584 39.4008C42.3212 39.3614 42.3809 39.3171 42.4369 39.2685C42.4967 39.2141 42.581 39.1688 42.6336 38.9694C42.6853 38.7692 42.6345 38.6876 42.6082 38.6115C42.583 38.5409 42.5524 38.4725 42.5167 38.4067C42.4437 38.2721 42.3657 38.1403 42.2829 38.0115C42.2013 37.8801 42.1207 37.7532 42.0672 37.659C42.0636 37.6499 42.0636 37.6499 42.0599 37.6454C42.0636 37.6363 42.0627 37.6345 42.0672 37.6273C42.1198 37.533 42.1986 37.4052 42.2792 37.2738C42.3599 37.1415 42.4406 37.0074 42.5076 36.8769C42.5412 36.8117 42.572 36.7464 42.5983 36.6703C42.6236 36.5942 42.6735 36.5117 42.6191 36.3123C42.5647 36.1129 42.4795 36.0676 42.4197 36.0151C42.3622 35.9666 42.301 35.9227 42.2367 35.8837C42.1061 35.804 41.9728 35.7291 41.837 35.6589C41.7002 35.5864 41.5651 35.5166 41.4718 35.4632C41.4654 35.4632 41.4645 35.4541 41.4582 35.4541V35.436C41.4564 35.3281 41.4609 35.1768 41.4654 35.0218C41.4705 34.869 41.4699 34.716 41.4636 34.5632C41.4609 34.489 41.4524 34.4151 41.4382 34.3421C41.4228 34.2633 41.4265 34.1672 41.2787 34.0222C41.1319 33.8772 41.0359 33.879 40.957 33.8645C40.8834 33.8506 40.8089 33.8421 40.7341 33.8392C40.5873 33.8301 40.4305 33.8401 40.2755 33.8482C40.1215 33.8573 39.9692 33.8609 39.8614 33.8609H39.8423L39.8333 33.8446C39.778 33.7522 39.7091 33.618 39.6348 33.4821C39.563 33.347 39.4863 33.2146 39.4046 33.0852C39.3652 33.0217 39.321 32.9614 39.2723 32.9048C39.2179 32.845 39.1726 32.7625 38.9714 32.71C38.7712 32.6574 38.6896 32.71 38.6135 32.7335C38.5432 32.7586 38.475 32.7892 38.4096 32.8251C38.2746 32.8979 38.1425 32.9759 38.0135 33.0589C37.8821 33.1413 37.7571 33.2211 37.6628 33.2746C37.6556 33.2746 37.6537 33.2836 37.6474 33.2836C37.6402 33.2836 37.6383 33.2746 37.6311 33.2746C37.5121 33.2065 37.3942 33.1365 37.2777 33.0643C37.1476 32.9827 37.0146 32.9059 36.8789 32.8341C36.8128 32.7992 36.744 32.7695 36.6732 32.7453C36.598 32.7199 36.5155 32.671 36.3161 32.7245V32.7263C36.1167 32.7807 36.0714 32.864 36.0189 32.9247C35.9704 32.9814 35.9265 33.0416 35.8875 33.1051C35.8095 33.2292 35.7352 33.3697 35.6627 33.5066C35.5902 33.6425 35.5204 33.7757 35.4661 33.8691C35.4624 33.8781 35.4615 33.8781 35.457 33.8854H35.4389C35.3301 33.8854 35.1824 33.8854 35.0274 33.8763C34.8734 33.8763 34.7121 33.8672 34.5653 33.8763C34.4928 33.8763 34.423 33.8881 34.3441 33.9035C34.2653 33.9198 34.1692 33.9171 34.0242 34.0648C33.8792 34.2116 33.881 34.3077 33.8665 34.3865C33.8535 34.4602 33.8463 34.5347 33.8448 34.6095C33.8393 34.7563 33.843 34.914 33.8484 35.068C33.8538 35.2221 33.8611 35.3725 33.8611 35.4804V35.5003C33.8547 35.5003 33.8538 35.5094 33.8466 35.5094C33.7542 35.5637 33.62 35.6344 33.4841 35.7087C33.3482 35.7831 33.2113 35.8592 33.0872 35.9389C33.0237 35.9783 32.9634 36.0226 32.9068 36.0712C32.847 36.1256 32.7627 36.1709 32.7102 36.3703C32.6585 36.5706 32.7093 36.6522 32.7355 36.7283C32.7618 36.8044 32.7935 36.8687 32.8271 36.934C32.8959 37.0636 32.9793 37.1959 33.0609 37.3264C33.1424 37.4578 33.2231 37.5865 33.2766 37.6798L33.2838 37.6962C33.2811 37.7052 33.2802 37.7052 33.2766 37.7107C33.224 37.8049 33.1452 37.9345 33.0645 38.0668C32.9835 38.196 32.9073 38.3281 32.8361 38.4628C32.8006 38.529 32.7703 38.5977 32.7455 38.6686C32.7201 38.7447 32.6703 38.8262 32.7247 39.0256C32.779 39.225 32.8642 39.2703 32.924 39.3229C32.9857 39.3754 33.0446 39.4153 33.1071 39.4543C33.2312 39.5331 33.3699 39.6065 33.5068 39.679C33.6436 39.7515 33.7786 39.8213 33.872 39.8757C33.8783 39.8757 33.8792 39.8847 33.8856 39.8847V39.9029C33.8874 40.0116 33.8828 40.1612 33.8783 40.3161C33.8747 40.4702 33.8729 40.6279 33.8801 40.7747C33.8847 40.8472 33.8892 40.9188 33.9055 40.9976C33.9209 41.0765 33.9173 41.1725 34.065 41.3175C34.2127 41.4625 34.3079 41.4607 34.3867 41.4752C34.4656 41.4897 34.5363 41.4961 34.6097 41.4988C34.7565 41.5078 34.9151 41.4988 35.07 41.4897C35.1951 41.4825 35.3057 41.4807 35.4044 41.4788V43.5623H24.9699C25.271 43.1729 25.4353 42.6951 25.4375 42.2029V24.0779C25.4375 23.3167 26.0356 22.7186 26.7969 22.7186ZM28.5967 22.7186H45.8281C46.5894 22.7186 47.1875 23.3167 47.1875 24.0779V25.4373H44.0863C44.0605 25.4333 44.0345 25.4314 44.0084 25.4319C43.9859 25.432 43.9635 25.4338 43.9413 25.4373H29.0625V24.0779C29.0625 23.5668 28.8849 23.0992 28.5967 22.7186ZM27.25 28.1561V29.0623H41.75V28.1561H27.25ZM27.25 30.8748V31.7811H41.75V30.8748H27.25ZM27.25 33.5936V34.4998H32.6875V33.5936H27.25ZM38.7122 33.6996C38.753 33.7694 38.7902 33.8328 38.8364 33.9171C38.9089 34.0494 38.9841 34.1872 39.0557 34.3086C39.092 34.3693 39.1282 34.4273 39.169 34.4835C39.2107 34.5397 39.2361 34.5977 39.3774 34.6783H39.3802C39.5224 34.7599 39.585 34.749 39.6538 34.7563C39.7236 34.7653 39.7898 34.7653 39.8596 34.7672C40.0009 34.7672 40.1577 34.7581 40.3073 34.7527H40.5592C40.5592 34.8342 40.561 34.9094 40.5592 35.0064C40.5547 35.1559 40.5501 35.3109 40.5519 35.4523C40.5519 35.523 40.5547 35.5891 40.5619 35.6589C40.571 35.7287 40.5619 35.7921 40.6453 35.9335C40.7287 36.0749 40.7867 36.1012 40.8438 36.1419C40.9008 36.1836 40.9579 36.2162 41.0187 36.2525C41.141 36.3232 41.2815 36.3957 41.4138 36.4664C41.499 36.5117 41.5633 36.5479 41.6331 36.5887C41.5932 36.6585 41.5561 36.7237 41.5062 36.8062C41.4274 36.934 41.3467 37.0672 41.2778 37.1905C41.2425 37.2521 41.2099 37.3101 41.1818 37.3744C41.1546 37.4379 41.1156 37.4904 41.1165 37.6536C41.1165 37.8185 41.1564 37.8692 41.1854 37.9345C41.2144 37.9979 41.247 38.055 41.2824 38.1157C41.3531 38.2381 41.4346 38.3713 41.5144 38.4982C41.566 38.5807 41.6032 38.645 41.644 38.7139C41.5742 38.7547 41.5107 38.7936 41.4265 38.8407C41.2942 38.9114 41.1564 38.9857 41.035 39.0582C40.9755 39.0923 40.9178 39.1292 40.8619 39.1688C40.8048 39.2105 40.7459 39.2359 40.6652 39.3772C40.5837 39.5204 40.5927 39.5857 40.5855 39.6555C40.5782 39.7252 40.5764 39.7923 40.5764 39.863C40.5764 40.0044 40.5837 40.1593 40.5891 40.3089C40.5927 40.4058 40.5918 40.4811 40.5927 40.5626H40.3408C40.1912 40.5626 40.0345 40.5508 39.8931 40.5517C39.8224 40.5517 39.7572 40.5517 39.6883 40.5635C39.6185 40.5726 39.5551 40.5644 39.4137 40.6451H39.4119C39.2705 40.7276 39.246 40.7847 39.2043 40.8417C39.1643 40.8988 39.1271 40.9578 39.0929 41.0185C39.0222 41.1408 38.9497 41.2795 38.879 41.4118C38.8337 41.497 38.7983 41.5613 38.7585 41.6311C38.6887 41.5912 38.6225 41.5568 38.5392 41.5051C38.4114 41.4272 38.28 41.3447 38.1567 41.2758C38.0963 41.2409 38.0343 41.2088 37.9709 41.1798C37.9066 41.1526 37.8558 41.1136 37.6909 41.1145C37.5278 41.1145 37.4761 41.1553 37.4118 41.1834C37.3483 41.2124 37.2885 41.2441 37.2278 41.2786C37.1055 41.3492 36.9759 41.4344 36.849 41.5142C36.7674 41.5658 36.7004 41.6012 36.6315 41.6411C36.5907 41.5722 36.5536 41.5087 36.5073 41.4236C36.4348 41.2922 36.3596 41.1562 36.288 41.0339C36.2532 40.974 36.2154 40.9159 36.1747 40.8599C36.1331 40.8037 36.1086 40.7439 35.9663 40.6632C35.8231 40.5817 35.7615 40.5907 35.6908 40.5835C35.621 40.5744 35.5549 40.5744 35.4842 40.5744C35.3428 40.5744 35.186 40.5826 35.0365 40.5853H34.7846C34.7846 40.5037 34.7827 40.4312 34.7846 40.3352C34.7891 40.1856 34.7936 40.0307 34.7918 39.8893C34.792 39.8197 34.7887 39.7501 34.7818 39.6808C34.7728 39.6111 34.7818 39.5476 34.6985 39.4062C34.6151 39.2649 34.5553 39.2404 34.4982 39.1996C34.4423 39.1598 34.3845 39.1226 34.3251 39.0882C34.2028 39.0175 34.0623 38.9459 33.93 38.8752C33.8448 38.8299 33.7804 38.7918 33.7107 38.751C33.7505 38.6812 33.7877 38.616 33.8375 38.5335C33.9164 38.4057 33.997 38.2743 34.0659 38.1511C34.1012 38.0895 34.1339 38.0297 34.162 37.9653C34.1892 37.9019 34.2281 37.8502 34.2272 37.6862C34.2272 37.5222 34.1873 37.4723 34.1583 37.408C34.1292 37.345 34.0968 37.2836 34.0614 37.224C33.9907 37.1017 33.9091 36.9702 33.8294 36.8434C33.7777 36.7618 33.7387 36.6966 33.698 36.6277C33.7677 36.5869 33.833 36.5479 33.9173 36.5017C34.0496 36.4301 34.1873 36.3567 34.3088 36.2842C34.3695 36.248 34.4266 36.2117 34.4819 36.1709C34.539 36.1292 34.5979 36.103 34.6785 35.9598C34.7601 35.8175 34.751 35.7559 34.7583 35.6861C34.7655 35.6163 34.7673 35.5502 34.7673 35.4786C34.7673 35.3372 34.7601 35.1822 34.7547 35.0327C34.751 34.9357 34.7519 34.8605 34.751 34.7789H35.003C35.1525 34.7789 35.3093 34.7889 35.4507 34.788C35.5213 34.788 35.5866 34.7898 35.6555 34.778C35.7252 34.769 35.7905 34.7762 35.9319 34.6947C36.0732 34.6122 36.0977 34.5551 36.1394 34.498C36.1802 34.4409 36.2155 34.382 36.2509 34.3213C36.3216 34.1989 36.3941 34.0603 36.4647 33.928C36.5101 33.8428 36.5454 33.7784 36.5853 33.7087V33.7123C36.6551 33.7522 36.7212 33.7866 36.8046 33.8382C36.9324 33.9162 37.0638 33.9987 37.187 34.0675C37.2487 34.102 37.3085 34.1328 37.3728 34.16C37.4372 34.1881 37.4888 34.2279 37.6528 34.227C37.816 34.227 37.8676 34.1862 37.932 34.1582C37.9954 34.1292 38.0552 34.0974 38.1159 34.063C38.2383 33.9923 38.3679 33.9071 38.4948 33.8274C38.5763 33.7757 38.6434 33.7404 38.7122 33.7005V33.6996ZM37.661 35.5637C37.4163 35.5637 37.3275 35.6879 37.2686 35.7532C37.2184 35.809 37.1743 35.87 37.1372 35.9353C37.0674 36.0571 37.0039 36.1823 36.9469 36.3105C36.8871 36.4383 36.8318 36.5642 36.7883 36.6522C36.7856 36.6612 36.7837 36.6612 36.7819 36.6648H36.7711C36.6741 36.6802 36.5391 36.6966 36.4013 36.7156C36.2627 36.7323 36.125 36.7565 35.989 36.7881C35.9161 36.8043 35.8453 36.8286 35.7778 36.8606C35.699 36.8987 35.5585 36.9476 35.4842 37.185C35.4099 37.4216 35.496 37.5448 35.5386 37.6218C35.5821 37.6989 35.6247 37.7514 35.67 37.804C35.7606 37.9091 35.8621 38.007 35.9636 38.1031C36.066 38.2 36.1666 38.2934 36.2364 38.3622C36.2409 38.3622 36.2409 38.3713 36.2454 38.3713L36.2436 38.3831C36.2282 38.481 36.2028 38.616 36.1784 38.7547C36.1517 38.8934 36.132 39.0335 36.1195 39.1742C36.1149 39.244 36.1104 39.3111 36.1213 39.399C36.1322 39.4869 36.1358 39.6382 36.3352 39.7832C36.5345 39.9282 36.6759 39.8829 36.762 39.8648C36.8481 39.8467 36.9115 39.8213 36.9741 39.7941C37.1009 39.7397 37.2242 39.6727 37.3456 39.6038C37.468 39.5367 37.5867 39.4661 37.6737 39.4207C37.6782 39.4207 37.6791 39.4207 37.6846 39.4117C37.6891 39.4117 37.69 39.4117 37.6945 39.4207C37.7824 39.4652 37.9012 39.5322 38.0244 39.5993C38.1467 39.6654 38.2718 39.7325 38.3996 39.7851C38.463 39.8113 38.5265 39.8358 38.6117 39.8521C38.6978 39.8684 38.8409 39.9137 39.0376 39.766C39.237 39.6183 39.237 39.4679 39.2469 39.38C39.255 39.3053 39.255 39.2299 39.2469 39.1552C39.2329 39.015 39.2117 38.8755 39.1835 38.7374C39.1563 38.5988 39.1291 38.4637 39.1128 38.3659L39.111 38.3532C39.1146 38.3532 39.1155 38.3441 39.1201 38.3441C39.1889 38.2734 39.2886 38.1801 39.3892 38.0822C39.4889 37.9843 39.5904 37.8837 39.6792 37.7777C39.7236 37.7242 39.7662 37.6735 39.8079 37.5956C39.8505 37.5176 39.9348 37.3926 39.8577 37.1569C39.7807 36.9213 39.6384 36.8751 39.5587 36.8379C39.4913 36.807 39.4208 36.7833 39.3484 36.7672C39.2123 36.7375 39.0746 36.7151 38.9361 36.7002C38.7974 36.6821 38.6624 36.6685 38.5654 36.654H38.5537C38.5509 36.6449 38.5509 36.6449 38.5482 36.6431C38.5029 36.5552 38.4458 36.4283 38.3851 36.3014C38.3259 36.1737 38.2603 36.0491 38.1884 35.9281C38.1508 35.864 38.1065 35.8041 38.0561 35.7495C37.9963 35.6852 37.9066 35.5637 37.661 35.5656V35.5637ZM27.25 36.3123V37.2186H31.7812V36.3123H27.25ZM37.6701 36.8977C37.6954 36.9521 37.7208 37.0065 37.7462 37.0572C37.7752 37.1134 37.8033 37.166 37.8368 37.2204C37.8703 37.2738 37.883 37.3264 38.0099 37.4188C38.1368 37.5104 38.1912 37.5077 38.2528 37.5231C38.3135 37.5376 38.3724 37.5475 38.434 37.5566C38.4902 37.5657 38.55 37.572 38.608 37.5792C38.5654 37.62 38.5201 37.6617 38.4812 37.7016C38.437 37.7461 38.3947 37.7923 38.3543 37.8402C38.3144 37.8892 38.2718 37.9182 38.2238 38.0686C38.1767 38.2191 38.1966 38.2698 38.2011 38.3332C38.2057 38.3967 38.2138 38.4565 38.2238 38.5199C38.2328 38.5761 38.2464 38.6341 38.2573 38.693C38.2057 38.6649 38.154 38.635 38.1033 38.6097C38.0486 38.581 37.9927 38.555 37.9356 38.5317C37.8776 38.5082 37.835 38.4746 37.6791 38.4755C37.5232 38.4755 37.4797 38.51 37.4227 38.5335C37.3647 38.558 37.3112 38.5861 37.2559 38.6151C37.2061 38.6414 37.1553 38.6713 37.1037 38.7003C37.1145 38.6414 37.1254 38.5807 37.1336 38.5245C37.1435 38.4619 37.1508 38.4021 37.1553 38.3387C37.1589 38.2752 37.1798 38.2254 37.1299 38.0759C37.081 37.9254 37.0348 37.8946 36.994 37.8466C36.9537 37.8001 36.9113 37.7553 36.8671 37.7125L36.7393 37.5901C36.7973 37.5811 36.8572 37.5747 36.9124 37.5657C36.975 37.5557 37.0321 37.5457 37.0937 37.5294C37.1544 37.5149 37.2079 37.5149 37.3338 37.4225C37.4598 37.3282 37.4743 37.2766 37.5069 37.2222C37.5396 37.1678 37.5658 37.1143 37.5939 37.0572C37.6184 37.0074 37.6456 36.9521 37.6701 36.8977ZM21.8125 40.8436H24.5312V42.2029C24.5312 42.9642 23.9331 43.5623 23.1719 43.5623C22.4106 43.5623 21.8125 42.9642 21.8125 42.2029V40.8436ZM27.25 40.8436V41.7498H32.6875V40.8436H27.25ZM38.125 42.3072C38.2383 42.376 38.3534 42.4467 38.4648 42.5038C38.5301 42.5373 38.5935 42.5672 38.6706 42.5926C38.7467 42.618 38.8301 42.6687 39.0294 42.6135H39.0312V46.0917L37.7426 45.2824L36.3107 46.1216V42.599C36.3342 42.608 36.3424 42.6198 36.3723 42.628C36.5726 42.6805 36.6542 42.628 36.7303 42.6044C36.8064 42.5781 36.8689 42.5473 36.9342 42.5129C37.0275 42.4639 37.1236 42.4023 37.2188 42.3425V44.0154H38.125V42.3072Z" fill="white"/>
<defs>
<filter id="filter0_d_27_41" x="0" y="0" width="69" height="72" filterUnits="userSpaceOnUse" color-interpolation-filters="sRGB">
<feFlood flood-opacity="0" result="BackgroundImageFix"/>
<feColorMatrix in="SourceAlpha" type="matrix" values="0 0 0 0 0 0 0 0 0 0 0 0 0 0 0 0 0 0 127 0" result="hardAlpha"/>
<feOffset dx="1" dy="4"/>
<feComposite in2="hardAlpha" operator="out"/>
<feColorMatrix type="matrix" values="0 0 0 0 0.00784314 0 0 0 0 0.603922 0 0 0 0 0.694118 0 0 0 0.2 0"/>
<feBlend mode="normal" in2="BackgroundImageFix" result="effect1_dropShadow_27_41"/>
<feBlend mode="normal" in="SourceGraphic" in2="effect1_dropShadow_27_41" result="shape"/>
</filter>
<linearGradient id="paint0_linear_27_41" x1="34" y1="0" x2="34" y2="68" gradientUnits="userSpaceOnUse">
<stop stop-color="#09A7BF"/>
<stop offset="1" stop-color="#029AB1"/>
</linearGradient>
</defs>
</svg>
