<svg width="27" height="27" viewBox="0 0 27 27" fill="none" xmlns="http://www.w3.org/2000/svg">
<g clip-path="url(#clip0_34_122)">
<path d="M13.5 0.500366C6.32024 0.500366 0.5 6.32061 0.5 13.5003C0.5 20.6801 6.32024 26.5003 13.5 26.5003C20.6797 26.5003 26.5 20.6801 26.5 13.5003C26.4999 6.32061 20.6796 0.500366 13.5 0.500366ZM10.0316 19.7852H7.17728V10.5639H10.0316V19.7852ZM8.59082 9.35627C7.65864 9.35627 6.90295 8.59442 6.90295 7.65478C6.90295 6.71503 7.65874 5.95323 8.59082 5.95323C9.52289 5.95323 10.2786 6.71503 10.2786 7.65478C10.2786 8.59447 9.52294 9.35627 8.59082 9.35627ZM20.728 19.7852H17.8875V14.9448C17.8875 13.6172 17.3832 12.8761 16.3335 12.8761C15.191 12.8761 14.5941 13.648 14.5941 14.9448V19.7852H11.8565V10.5639H14.5941V11.8058C14.5941 11.8058 15.4176 10.2826 17.3729 10.2826C19.3283 10.2826 20.728 11.4765 20.728 13.9464L20.728 19.7852Z" fill="url(#paint0_linear_34_122)"/>
</g>
<defs>
<linearGradient id="paint0_linear_34_122" x1="4.3076" y1="4.30797" x2="22.6923" y2="22.6927" gradientUnits="userSpaceOnUse">
<stop stop-color="#2489BE"/>
<stop offset="1" stop-color="#0575B3"/>
</linearGradient>
<clipPath id="clip0_34_122">
<rect width="26" height="26" fill="white" transform="translate(0.5 0.5)"/>
</clipPath>
</defs>
</svg>
