<svg width="22" height="22" viewBox="0 0 22 22" fill="none" xmlns="http://www.w3.org/2000/svg">
<path d="M20.4531 19.4837C17.5862 16.2318 14.6437 14.4374 11.6875 14.1143V2.06245C11.6871 1.94525 11.6568 1.83009 11.5995 1.72791C11.5421 1.62572 11.4595 1.5399 11.3596 1.4786C11.2598 1.41729 11.1459 1.38253 11.0288 1.37763C10.9117 1.37272 10.7953 1.39783 10.6906 1.45057C9.5975 2.00057 8.62812 1.75307 7.37 1.45057C5.5813 0.878456 3.6587 0.878456 1.87 1.45057C1.77086 1.48406 1.68067 1.53973 1.60631 1.61335C1.53195 1.68697 1.47537 1.77659 1.44089 1.87539C1.40641 1.97418 1.39494 2.07955 1.40735 2.18345C1.41976 2.28735 1.45572 2.38705 1.5125 2.47495L3.26562 4.81245L1.5125 7.14995C1.42368 7.2673 1.37487 7.41006 1.37324 7.55723C1.37161 7.70439 1.41725 7.8482 1.50345 7.96749C1.58965 8.08678 1.71185 8.17526 1.85209 8.21992C1.99233 8.26458 2.14319 8.26305 2.2825 8.21557C3.83395 7.72837 5.50022 7.74763 7.04 8.27057C7.78448 8.49111 8.55351 8.61813 9.32937 8.6487C9.66016 8.64887 9.98993 8.61197 10.3125 8.5387V14.0731H10.065C4.8125 14.4374 1.6225 19.3531 1.485 19.5662C1.41841 19.67 1.38096 19.7898 1.37657 19.913C1.37219 20.0363 1.40104 20.1584 1.46009 20.2667C1.51914 20.3749 1.60622 20.4653 1.7122 20.5283C1.81819 20.5914 1.93918 20.6247 2.0625 20.6249H19.9375C20.0696 20.6248 20.1989 20.5865 20.3099 20.5148C20.4208 20.4431 20.5087 20.3409 20.5631 20.2205C20.6175 20.1001 20.6361 19.9666 20.6166 19.8359C20.5971 19.7052 20.5403 19.583 20.4531 19.4837Z" fill="#09A7BF"/>
</svg>
