<svg width="26" height="26" viewBox="0 0 26 26" fill="none" xmlns="http://www.w3.org/2000/svg">
<g clip-path="url(#clip0_35_30)">
<path d="M13 26C20.1797 26 26 20.1797 26 13C26 5.8203 20.1797 0 13 0C5.82033 0 3.05176e-05 5.8203 3.05176e-05 13C3.05176e-05 20.1797 5.82033 26 13 26Z" fill="#2DAAE1"/>
<path d="M21.3354 7.82881C20.7222 8.10091 20.0636 8.28485 19.3711 8.36753C20.0779 7.94434 20.6193 7.27372 20.8749 6.47558C20.2036 6.87431 19.4689 7.15502 18.7027 7.3055C18.0792 6.64089 17.19 6.22595 16.2064 6.22595C14.3183 6.22595 12.787 7.7566 12.787 9.64581C12.787 9.91349 12.8171 10.1746 12.8751 10.4254C10.0328 10.2825 7.51293 8.92104 5.82624 6.85225C5.53172 7.3575 5.36314 7.94495 5.36314 8.57173C5.36314 9.75807 5.96696 10.8048 6.88447 11.4179C6.34132 11.4011 5.81009 11.2545 5.3352 10.9904V11.0336C5.3352 12.6907 6.51385 14.0724 8.07844 14.3867C7.79103 14.4654 7.4894 14.5066 7.17736 14.5066C6.95673 14.5066 6.74268 14.4857 6.53358 14.4464C6.96878 15.8046 8.23179 16.7933 9.72787 16.8212C8.55743 17.7387 7.08263 18.2856 5.48082 18.2856C5.20493 18.2856 4.93226 18.2692 4.66458 18.2369C6.17828 19.2075 7.97554 19.7741 9.90691 19.7741C16.1971 19.7741 19.6372 14.563 19.6372 10.0438C19.6372 9.89548 19.6339 9.74822 19.6268 9.60149C20.297 9.1167 20.8756 8.51644 21.3354 7.82881Z" fill="white"/>
</g>
<defs>
<clipPath id="clip0_35_30">
<rect width="26" height="26" fill="white"/>
</clipPath>
</defs>
</svg>
