<svg width="164" height="32" viewBox="0 0 164 32" fill="none" xmlns="http://www.w3.org/2000/svg">
<path d="M49.824 24.24C48.288 24.24 47 24.016 45.96 23.568C44.936 23.12 44.16 22.536 43.632 21.816C43.104 21.096 42.824 20.328 42.792 19.512C42.792 19.384 42.84 19.272 42.936 19.176C43.032 19.064 43.152 19.008 43.296 19.008H45.864C46.072 19.008 46.232 19.056 46.344 19.152C46.456 19.232 46.56 19.336 46.656 19.464C46.768 19.736 46.944 20 47.184 20.256C47.44 20.512 47.784 20.728 48.216 20.904C48.648 21.064 49.184 21.144 49.824 21.144C50.864 21.144 51.64 20.976 52.152 20.64C52.68 20.304 52.944 19.848 52.944 19.272C52.944 18.856 52.8 18.52 52.512 18.264C52.24 18.008 51.8 17.776 51.192 17.568C50.6 17.36 49.808 17.136 48.816 16.896C47.616 16.64 46.592 16.312 45.744 15.912C44.912 15.496 44.28 14.968 43.848 14.328C43.432 13.672 43.224 12.864 43.224 11.904C43.224 10.944 43.488 10.096 44.016 9.36C44.544 8.608 45.288 8.024 46.248 7.608C47.208 7.176 48.352 6.96 49.68 6.96C50.752 6.96 51.696 7.104 52.512 7.392C53.344 7.68 54.032 8.056 54.576 8.52C55.136 8.984 55.56 9.48 55.848 10.008C56.136 10.536 56.288 11.048 56.304 11.544C56.304 11.672 56.256 11.792 56.16 11.904C56.064 12 55.944 12.048 55.8 12.048H53.112C52.952 12.048 52.808 12.016 52.68 11.952C52.552 11.888 52.448 11.776 52.368 11.616C52.272 11.2 51.984 10.84 51.504 10.536C51.04 10.216 50.432 10.056 49.68 10.056C48.896 10.056 48.272 10.2 47.808 10.488C47.36 10.776 47.136 11.216 47.136 11.808C47.136 12.192 47.248 12.52 47.472 12.792C47.712 13.048 48.104 13.28 48.648 13.488C49.208 13.68 49.944 13.896 50.856 14.136C52.264 14.424 53.408 14.768 54.288 15.168C55.168 15.568 55.816 16.088 56.232 16.728C56.648 17.352 56.856 18.144 56.856 19.104C56.856 20.176 56.552 21.096 55.944 21.864C55.352 22.632 54.528 23.224 53.472 23.64C52.432 24.04 51.216 24.24 49.824 24.24ZM63.7523 24.24C62.8243 24.24 62.0003 24.032 61.2803 23.616C60.5763 23.184 60.0243 22.568 59.6243 21.768C59.2403 20.952 59.0483 19.968 59.0483 18.816V12.12C59.0483 11.944 59.1043 11.8 59.2163 11.688C59.3283 11.576 59.4643 11.52 59.6243 11.52H62.1683C62.3443 11.52 62.4883 11.576 62.6003 11.688C62.7123 11.8 62.7683 11.944 62.7683 12.12V18.672C62.7683 20.464 63.5523 21.36 65.1203 21.36C65.8723 21.36 66.4643 21.128 66.8963 20.664C67.3443 20.184 67.5683 19.52 67.5683 18.672V12.12C67.5683 11.944 67.6243 11.8 67.7363 11.688C67.8483 11.576 67.9923 11.52 68.1683 11.52H70.7123C70.8723 11.52 71.0083 11.576 71.1203 11.688C71.2323 11.8 71.2883 11.944 71.2883 12.12V23.4C71.2883 23.576 71.2323 23.72 71.1203 23.832C71.0083 23.944 70.8723 24 70.7123 24H68.3603C68.1843 24 68.0403 23.944 67.9283 23.832C67.8163 23.72 67.7603 23.576 67.7603 23.4V22.464C67.3443 23.04 66.8083 23.48 66.1523 23.784C65.4963 24.088 64.6963 24.24 63.7523 24.24ZM79.8529 24.24C78.6849 24.24 77.6529 24.024 76.7569 23.592C75.8769 23.16 75.1809 22.536 74.6689 21.72C74.1569 20.888 73.8769 19.896 73.8289 18.744C73.8129 18.488 73.8049 18.168 73.8049 17.784C73.8049 17.384 73.8129 17.056 73.8289 16.8C73.8769 15.632 74.1489 14.64 74.6449 13.824C75.1569 12.992 75.8609 12.36 76.7569 11.928C77.6529 11.496 78.6849 11.28 79.8529 11.28C80.9249 11.28 81.8369 11.432 82.5889 11.736C83.3409 12.024 83.9569 12.392 84.4369 12.84C84.9169 13.288 85.2689 13.76 85.4929 14.256C85.7329 14.736 85.8609 15.16 85.8769 15.528C85.8929 15.688 85.8369 15.832 85.7089 15.96C85.5969 16.072 85.4609 16.128 85.3009 16.128H82.7329C82.5729 16.128 82.4449 16.088 82.3489 16.008C82.2689 15.912 82.1889 15.784 82.1089 15.624C81.8849 15.064 81.5969 14.664 81.2449 14.424C80.8929 14.184 80.4529 14.064 79.9249 14.064C79.2049 14.064 78.6369 14.296 78.2209 14.76C77.8049 15.224 77.5809 15.944 77.5489 16.92C77.5329 17.544 77.5329 18.112 77.5489 18.624C77.5969 19.616 77.8209 20.336 78.2209 20.784C78.6369 21.232 79.2049 21.456 79.9249 21.456C80.4849 21.456 80.9329 21.336 81.2689 21.096C81.6049 20.856 81.8849 20.456 82.1089 19.896C82.1729 19.736 82.2529 19.616 82.3489 19.536C82.4449 19.44 82.5729 19.392 82.7329 19.392H85.3009C85.4609 19.392 85.5969 19.456 85.7089 19.584C85.8369 19.696 85.8929 19.832 85.8769 19.992C85.8609 20.264 85.7809 20.584 85.6369 20.952C85.5089 21.32 85.2929 21.696 84.9889 22.08C84.7009 22.464 84.3249 22.824 83.8609 23.16C83.3969 23.48 82.8289 23.744 82.1569 23.952C81.5009 24.144 80.7329 24.24 79.8529 24.24ZM93.7747 24.24C92.6068 24.24 91.5748 24.024 90.6788 23.592C89.7988 23.16 89.1028 22.536 88.5908 21.72C88.0788 20.888 87.7988 19.896 87.7508 18.744C87.7348 18.488 87.7268 18.168 87.7268 17.784C87.7268 17.384 87.7348 17.056 87.7508 16.8C87.7988 15.632 88.0708 14.64 88.5668 13.824C89.0788 12.992 89.7828 12.36 90.6788 11.928C91.5748 11.496 92.6068 11.28 93.7747 11.28C94.8468 11.28 95.7588 11.432 96.5108 11.736C97.2628 12.024 97.8788 12.392 98.3588 12.84C98.8388 13.288 99.1908 13.76 99.4148 14.256C99.6548 14.736 99.7828 15.16 99.7988 15.528C99.8148 15.688 99.7588 15.832 99.6308 15.96C99.5188 16.072 99.3828 16.128 99.2228 16.128H96.6548C96.4948 16.128 96.3668 16.088 96.2708 16.008C96.1908 15.912 96.1108 15.784 96.0308 15.624C95.8068 15.064 95.5188 14.664 95.1668 14.424C94.8148 14.184 94.3748 14.064 93.8468 14.064C93.1268 14.064 92.5588 14.296 92.1428 14.76C91.7268 15.224 91.5028 15.944 91.4708 16.92C91.4548 17.544 91.4548 18.112 91.4708 18.624C91.5188 19.616 91.7428 20.336 92.1428 20.784C92.5588 21.232 93.1268 21.456 93.8468 21.456C94.4068 21.456 94.8548 21.336 95.1908 21.096C95.5268 20.856 95.8068 20.456 96.0308 19.896C96.0948 19.736 96.1748 19.616 96.2708 19.536C96.3668 19.44 96.4948 19.392 96.6548 19.392H99.2228C99.3828 19.392 99.5188 19.456 99.6308 19.584C99.7588 19.696 99.8148 19.832 99.7988 19.992C99.7828 20.264 99.7028 20.584 99.5588 20.952C99.4308 21.32 99.2148 21.696 98.9108 22.08C98.6228 22.464 98.2468 22.824 97.7828 23.16C97.3188 23.48 96.7508 23.744 96.0788 23.952C95.4228 24.144 94.6548 24.24 93.7747 24.24ZM107.721 24.24C105.881 24.24 104.417 23.728 103.329 22.704C102.257 21.68 101.689 20.192 101.625 18.24C101.625 18.112 101.625 17.944 101.625 17.736C101.625 17.512 101.625 17.336 101.625 17.208C101.689 15.976 101.969 14.92 102.465 14.04C102.961 13.144 103.657 12.464 104.553 12C105.449 11.52 106.497 11.28 107.697 11.28C109.041 11.28 110.161 11.56 111.057 12.12C111.969 12.664 112.649 13.416 113.097 14.376C113.561 15.32 113.793 16.408 113.793 17.64V18.192C113.793 18.352 113.729 18.488 113.601 18.6C113.489 18.712 113.353 18.768 113.193 18.768H105.345C105.345 18.784 105.345 18.816 105.345 18.864C105.345 18.896 105.345 18.928 105.345 18.96C105.361 19.472 105.457 19.944 105.633 20.376C105.825 20.792 106.089 21.128 106.425 21.384C106.777 21.64 107.193 21.768 107.673 21.768C108.073 21.768 108.401 21.712 108.657 21.6C108.913 21.488 109.121 21.352 109.281 21.192C109.457 21.032 109.585 20.896 109.665 20.784C109.809 20.624 109.921 20.528 110.001 20.496C110.097 20.448 110.241 20.424 110.433 20.424H112.929C113.089 20.424 113.217 20.472 113.313 20.568C113.425 20.648 113.473 20.768 113.457 20.928C113.441 21.184 113.305 21.504 113.049 21.888C112.809 22.256 112.449 22.624 111.969 22.992C111.489 23.344 110.889 23.64 110.169 23.88C109.465 24.12 108.649 24.24 107.721 24.24ZM105.345 16.584H110.049V16.536C110.049 15.96 109.953 15.464 109.761 15.048C109.585 14.616 109.321 14.28 108.969 14.04C108.617 13.8 108.193 13.68 107.697 13.68C107.201 13.68 106.777 13.8 106.425 14.04C106.073 14.28 105.801 14.616 105.609 15.048C105.433 15.464 105.345 15.96 105.345 16.536V16.584ZM121.112 24.24C120.12 24.24 119.264 24.128 118.544 23.904C117.84 23.664 117.264 23.376 116.816 23.04C116.384 22.704 116.056 22.368 115.832 22.032C115.624 21.68 115.512 21.384 115.496 21.144C115.48 20.968 115.536 20.824 115.664 20.712C115.792 20.6 115.92 20.544 116.048 20.544H118.376C118.424 20.544 118.472 20.552 118.52 20.568C118.568 20.584 118.616 20.624 118.664 20.688C118.872 20.832 119.088 21 119.312 21.192C119.536 21.368 119.792 21.52 120.08 21.648C120.384 21.776 120.76 21.84 121.208 21.84C121.736 21.84 122.184 21.736 122.552 21.528C122.92 21.304 123.104 20.992 123.104 20.592C123.104 20.304 123.016 20.064 122.84 19.872C122.68 19.68 122.368 19.504 121.904 19.344C121.44 19.184 120.752 19.008 119.84 18.816C118.976 18.624 118.24 18.368 117.632 18.048C117.024 17.728 116.568 17.328 116.264 16.848C115.96 16.352 115.808 15.76 115.808 15.072C115.808 14.448 116 13.848 116.384 13.272C116.784 12.696 117.368 12.224 118.136 11.856C118.904 11.472 119.864 11.28 121.016 11.28C121.896 11.28 122.664 11.392 123.32 11.616C123.992 11.824 124.552 12.096 125 12.432C125.448 12.752 125.784 13.088 126.008 13.44C126.248 13.776 126.376 14.072 126.392 14.328C126.408 14.488 126.36 14.624 126.248 14.736C126.136 14.848 126.008 14.904 125.864 14.904H123.728C123.648 14.904 123.576 14.896 123.512 14.88C123.448 14.848 123.392 14.808 123.344 14.76C123.152 14.632 122.952 14.488 122.744 14.328C122.552 14.152 122.32 14 122.048 13.872C121.776 13.744 121.424 13.68 120.992 13.68C120.464 13.68 120.056 13.8 119.768 14.04C119.496 14.264 119.36 14.552 119.36 14.904C119.36 15.128 119.432 15.336 119.576 15.528C119.72 15.72 120.016 15.896 120.464 16.056C120.912 16.216 121.592 16.384 122.504 16.56C123.592 16.752 124.456 17.04 125.096 17.424C125.736 17.808 126.192 18.256 126.464 18.768C126.752 19.264 126.896 19.8 126.896 20.376C126.896 21.128 126.672 21.8 126.224 22.392C125.776 22.968 125.12 23.424 124.256 23.76C123.408 24.08 122.36 24.24 121.112 24.24ZM134.12 24.24C133.128 24.24 132.272 24.128 131.552 23.904C130.848 23.664 130.272 23.376 129.824 23.04C129.392 22.704 129.064 22.368 128.84 22.032C128.632 21.68 128.52 21.384 128.504 21.144C128.488 20.968 128.544 20.824 128.672 20.712C128.8 20.6 128.928 20.544 129.056 20.544H131.384C131.432 20.544 131.48 20.552 131.528 20.568C131.576 20.584 131.624 20.624 131.672 20.688C131.88 20.832 132.096 21 132.32 21.192C132.544 21.368 132.8 21.52 133.088 21.648C133.392 21.776 133.768 21.84 134.216 21.84C134.744 21.84 135.192 21.736 135.56 21.528C135.928 21.304 136.112 20.992 136.112 20.592C136.112 20.304 136.024 20.064 135.848 19.872C135.688 19.68 135.376 19.504 134.912 19.344C134.448 19.184 133.76 19.008 132.848 18.816C131.984 18.624 131.248 18.368 130.64 18.048C130.032 17.728 129.576 17.328 129.271 16.848C128.968 16.352 128.816 15.76 128.816 15.072C128.816 14.448 129.008 13.848 129.392 13.272C129.792 12.696 130.376 12.224 131.144 11.856C131.912 11.472 132.872 11.28 134.023 11.28C134.904 11.28 135.672 11.392 136.328 11.616C137 11.824 137.56 12.096 138.008 12.432C138.456 12.752 138.792 13.088 139.016 13.44C139.256 13.776 139.384 14.072 139.4 14.328C139.416 14.488 139.368 14.624 139.256 14.736C139.144 14.848 139.016 14.904 138.872 14.904H136.736C136.656 14.904 136.584 14.896 136.52 14.88C136.456 14.848 136.4 14.808 136.352 14.76C136.16 14.632 135.96 14.488 135.752 14.328C135.56 14.152 135.328 14 135.056 13.872C134.784 13.744 134.432 13.68 134 13.68C133.472 13.68 133.064 13.8 132.776 14.04C132.504 14.264 132.368 14.552 132.368 14.904C132.368 15.128 132.44 15.336 132.584 15.528C132.728 15.72 133.024 15.896 133.472 16.056C133.92 16.216 134.6 16.384 135.512 16.56C136.6 16.752 137.464 17.04 138.104 17.424C138.744 17.808 139.2 18.256 139.472 18.768C139.76 19.264 139.904 19.8 139.904 20.376C139.904 21.128 139.68 21.8 139.232 22.392C138.784 22.968 138.128 23.424 137.264 23.76C136.416 24.08 135.368 24.24 134.12 24.24Z" fill="#09A7BF"/>
<path d="M29.75 28.34C25.58 23.61 21.3 21 17 20.53V3C16.9995 2.82953 16.9554 2.66203 16.8719 2.5134C16.7885 2.36476 16.6684 2.23993 16.5231 2.15076C16.3778 2.06159 16.2122 2.01103 16.0418 2.0039C15.8715 1.99676 15.7022 2.03329 15.55 2.11C13.96 2.91 12.55 2.55 10.72 2.11C8.11825 1.27783 5.32173 1.27783 2.71999 2.11C2.57579 2.1587 2.44461 2.23968 2.33645 2.34676C2.22828 2.45385 2.14599 2.58421 2.09584 2.72791C2.04569 2.87161 2.029 3.02487 2.04705 3.176C2.0651 3.32713 2.11741 3.47214 2.19999 3.6L4.74999 7L2.19999 10.4C2.0708 10.5707 1.9998 10.7783 1.99744 10.9924C1.99507 11.2065 2.06146 11.4156 2.18683 11.5891C2.31221 11.7627 2.48996 11.8914 2.69394 11.9563C2.89792 12.0213 3.11736 12.0191 3.31999 11.95C5.57665 11.2413 8.00031 11.2694 10.24 12.03C11.3229 12.3508 12.4415 12.5355 13.57 12.58C14.0511 12.5802 14.5308 12.5266 15 12.42V20.47H14.64C6.99999 21 2.35999 28.15 2.15999 28.46C2.06313 28.611 2.00866 28.7852 2.00229 28.9645C1.99591 29.1437 2.03787 29.3214 2.12376 29.4788C2.20965 29.6363 2.33631 29.7678 2.49047 29.8595C2.64464 29.9512 2.82062 29.9997 2.99999 30H29C29.1922 29.9998 29.3802 29.9441 29.5416 29.8398C29.703 29.7355 29.8309 29.5869 29.91 29.4117C29.9892 29.2366 30.0161 29.0424 29.9878 28.8523C29.9594 28.6622 29.8768 28.4844 29.75 28.34Z" fill="#09A7BF"/>
</svg>
